<?xml version="1.0" encoding="UTF-8" standalone="no"?>
<!-- Created with Inkscape (http://www.inkscape.org/) -->

<svg
   xmlns:dc="http://purl.org/dc/elements/1.1/"
   xmlns:cc="http://creativecommons.org/ns#"
   xmlns:rdf="http://www.w3.org/1999/02/22-rdf-syntax-ns#"
   xmlns:svg="http://www.w3.org/2000/svg"
   xmlns="http://www.w3.org/2000/svg"
   xmlns:sodipodi="http://sodipodi.sourceforge.net/DTD/sodipodi-0.dtd"
   xmlns:inkscape="http://www.inkscape.org/namespaces/inkscape"
   version="1.1"
   width="64.005043"
   height="63.932461"
   id="svg3039"
   inkscape:version="0.48.5 r10040"
   sodipodi:docname="chat_room.svg"
   inkscape:export-filename="/Users/pierre/Documents/Code/momentics/Hg10/assets/images/chat_room.png"
   inkscape:export-xdpi="107.0004"
   inkscape:export-ydpi="107.0004">
  <sodipodi:namedview
     pagecolor="#ffffff"
     bordercolor="#666666"
     borderopacity="1"
     objecttolerance="10"
     gridtolerance="10"
     guidetolerance="10"
     inkscape:pageopacity="0"
     inkscape:pageshadow="2"
     inkscape:window-width="1816"
     inkscape:window-height="1395"
     id="namedview7"
     showgrid="false"
     inkscape:zoom="5.1773101"
     inkscape:cx="25.239457"
     inkscape:cy="10.886007"
     inkscape:window-x="465"
     inkscape:window-y="0"
     inkscape:window-maximized="0"
     inkscape:current-layer="svg3039" />
  <metadata
     id="metadata3045">
    <rdf:RDF>
      <cc:Work
         rdf:about="">
        <dc:format>image/svg+xml</dc:format>
        <dc:type
           rdf:resource="http://purl.org/dc/dcmitype/StillImage" />
        <dc:title></dc:title>
      </cc:Work>
    </rdf:RDF>
  </metadata>
  <defs
     id="defs3043" />
  <path
     d="m 43.873432,25.024883 a 11.723442,11.558323 0 0 1 -23.446883,0 11.723442,11.558323 0 1 1 23.446883,0 z"
     id="path3049-4"
     style="fill:#d3d3d3;fill-opacity:1;stroke:none"
     inkscape:connector-curvature="0" />
  <path
     d="m 12.418282,63.932459 0,-12.901351 c 0.102361,-4.551827 9.637847,-9.527301 18.493204,-9.746482 9.639205,-0.238582 20.696475,5.045146 20.805099,8.838329 l 0.247669,13.793586 c -14.290635,0 -32.059733,0.01592 -39.545972,0.01592 z"
     id="path3069"
     style="fill:#d3d3d3;fill-opacity:1;stroke:none"
     inkscape:connector-curvature="0" />
  <path
     inkscape:connector-curvature="0"
     d="m 18.879537,26.724783 c 0.139042,0.921403 0.582034,2.223953 1.0555,3.086033 0.652819,1.188643 1.517988,1.839715 0.696334,2.693912 -1.506686,1.566361 -3.723023,2.414054 -5.911763,2.414054 -2.188739,0 -4.364005,-0.888264 -5.9117621,-2.414054 -1.5477573,-1.52579 -2.4489499,-3.670321 -2.4491893,-5.828233 -2.394e-4,-2.158213 0.9007392,-4.303229 2.4485428,-5.829399 1.5478036,-1.526169 3.7233646,-2.414691 5.9124086,-2.414691 2.189045,0 4.708172,0.605077 5.912409,2.414691 0.119657,0.179809 -0.785191,0.639249 -1.257259,1.754974 -0.443205,1.04751 -0.700577,2.761866 -0.495221,4.122713 z"
     id="path3049-4-5"
     style="fill:#d3d3d3;fill-opacity:1;stroke:none"
     sodipodi:nodetypes="sssssssssss" />
  <path
     inkscape:connector-curvature="0"
     d="m 0.6473036,54.424689 0,-9.201021 c 0.073,-3.246277 6.873542,-6.794698 13.1890264,-6.951013 3.516053,-0.08703 7.363037,0.719292 10.161801,2.160544 0.06943,0.03575 0.02792,0.371241 0.01455,0.753874 -0.242612,0.0451 -12.820107,2.532571 -13.027501,8.703837 -0.04104,1.22107 -0.171475,3.15037 -0.193965,4.522427 -3.431561,0 -4.8048624,0.01136 -10.1439114,0.01135 z"
     id="path3069-6"
     style="fill:#d3d3d3;fill-opacity:1;stroke:none"
     sodipodi:nodetypes="ccsscscc" />
  <path
     inkscape:connector-curvature="0"
     d="m 45.49895,26.776514 c -0.139042,0.921403 -0.582034,2.223953 -1.0555,3.086033 -0.652819,1.188643 -1.517988,1.839715 -0.696334,2.693912 1.506686,1.566361 3.723023,2.414054 5.911763,2.414054 2.188739,0 4.364005,-0.888264 5.911762,-2.414054 1.547757,-1.52579 2.44895,-3.670321 2.449189,-5.828233 2.4e-4,-2.158213 -0.900739,-4.303229 -2.448543,-5.829399 -1.547803,-1.526169 -3.723364,-2.414691 -5.912408,-2.414691 -2.189045,0 -4.708172,0.605077 -5.912409,2.414691 -0.119657,0.179809 0.785191,0.639249 1.257259,1.754974 0.443205,1.04751 0.700577,2.761866 0.495221,4.122713 z"
     id="path3049-4-5-6"
     style="fill:#d3d3d3;fill-opacity:1;stroke:none"
     sodipodi:nodetypes="sssssssssss" />
  <path
     inkscape:connector-curvature="0"
     d="m 63.731183,54.47642 0,-9.201021 c -0.073,-3.246277 -6.873542,-6.794698 -13.189026,-6.951013 -3.516053,-0.08703 -7.363037,0.719292 -10.161801,2.160544 -0.06943,0.03575 -0.02792,0.371241 -0.01455,0.753874 0.242612,0.0451 12.820107,2.532571 13.027501,8.703837 0.04104,1.22107 0.171475,3.15037 0.193965,4.522427 3.431561,0 4.804862,0.01136 10.143911,0.01135 z"
     id="path3069-6-0"
     style="fill:#d3d3d3;fill-opacity:1;stroke:none"
     sodipodi:nodetypes="ccsscscc" />
</svg>
